<?xml version="1.0" encoding="UTF-8" standalone="no"?>
<!-- Created with Inkscape (http://www.inkscape.org/) -->

<svg
   xmlns:osb="http://www.openswatchbook.org/uri/2009/osb"
   xmlns:dc="http://purl.org/dc/elements/1.1/"
   xmlns:cc="http://creativecommons.org/ns#"
   xmlns:rdf="http://www.w3.org/1999/02/22-rdf-syntax-ns#"
   xmlns:svg="http://www.w3.org/2000/svg"
   xmlns="http://www.w3.org/2000/svg"
   xmlns:sodipodi="http://sodipodi.sourceforge.net/DTD/sodipodi-0.dtd"
   xmlns:inkscape="http://www.inkscape.org/namespaces/inkscape"
   width="680.32233"
   height="296.55817"
   id="svg2"
   version="1.1"
   inkscape:version="0.48.5 r10040"
   sodipodi:docname="6_0_Buffer.svg">
  <defs
     id="defs4">
    <linearGradient
       id="linearGradient5226"
       osb:paint="solid">
      <stop
         style="stop-color:#000000;stop-opacity:1;"
         offset="0"
         id="stop5228" />
    </linearGradient>
  </defs>
  <sodipodi:namedview
     id="base"
     pagecolor="#ffffff"
     bordercolor="#666666"
     borderopacity="1.0"
     inkscape:pageopacity="0.0"
     inkscape:pageshadow="2"
     inkscape:zoom="1.684375"
     inkscape:cx="300.68277"
     inkscape:cy="85.588112"
     inkscape:document-units="px"
     inkscape:current-layer="layer1"
     showgrid="false"
     inkscape:window-width="1920"
     inkscape:window-height="1053"
     inkscape:window-x="-9"
     inkscape:window-y="-9"
     inkscape:window-maximized="1"
     fit-margin-top="20"
     fit-margin-left="20"
     fit-margin-right="20"
     fit-margin-bottom="20" />
  <metadata
     id="metadata7">
    <rdf:RDF>
      <cc:Work
         rdf:about="">
        <dc:format>image/svg+xml</dc:format>
        <dc:type
           rdf:resource="http://purl.org/dc/dcmitype/StillImage" />
        <dc:title />
      </cc:Work>
    </rdf:RDF>
  </metadata>
  <g
     inkscape:label="Layer 1"
     inkscape:groupmode="layer"
     id="layer1"
     transform="translate(-31.886066,-21.70971)">
    <rect
       style="fill:#ff0000;stroke:#000000;stroke-width:4.94636869;stroke-miterlimit:4;stroke-opacity:1;stroke-dasharray:none;stroke-dashoffset:0"
       id="rect4637-7"
       width="171.20224"
       height="114.91028"
       x="463.98444"
       y="180.66431" />
    <rect
       style="fill:#ff0000;stroke:#000000;stroke-width:4.94636869;stroke-miterlimit:4;stroke-opacity:1;stroke-dasharray:none;stroke-dashoffset:0"
       id="rect4637-3"
       width="171.20224"
       height="114.91028"
       x="293.0011"
       y="180.66432" />
    <rect
       style="fill:#ff0000;stroke:#000000;stroke-width:4.94636869;stroke-miterlimit:4;stroke-opacity:1;stroke-dasharray:none;stroke-dashoffset:0"
       id="rect4637"
       width="171.20224"
       height="114.91028"
       x="122.12724"
       y="180.73524" />
    <path
       style="fill:#ff0000;stroke:#000000;stroke-width:1px;stroke-linecap:butt;stroke-linejoin:miter;stroke-opacity:1;opacity:1"
       d="m 87.637182,268.48381 604.071218,0"
       id="path2985-4"
       inkscape:connector-curvature="0" />
    <path
       style="fill:none;stroke:#000000;stroke-width:1.02041078;stroke-linecap:butt;stroke-linejoin:miter;stroke-miterlimit:4;stroke-opacity:1;stroke-dasharray:8.16328616, 4.08164308;stroke-dashoffset:0"
       d="m 292.81132,46.264445 0,254.537875"
       id="path5257-8"
       inkscape:connector-curvature="0" />
    <path
       style="fill:none;stroke:#000000;stroke-width:1.02041078;stroke-linecap:butt;stroke-linejoin:miter;stroke-miterlimit:4;stroke-opacity:1;stroke-dasharray:8.16328616, 4.08164308;stroke-dashoffset:0"
       d="m 122.12389,45.594556 0,254.537874"
       id="path5257"
       inkscape:connector-curvature="0" />
    <text
       xml:space="preserve"
       style="font-size:40px;font-style:normal;font-weight:normal;line-height:125%;letter-spacing:0px;word-spacing:0px;fill:#ff0000;fill-opacity:1;stroke:none;font-family:Sans;opacity:1"
       x="48.741535"
       y="281.61578"
       id="text3031"
       sodipodi:linespacing="125%"><tspan
         sodipodi:role="line"
         id="tspan3033"
         x="48.741535"
         y="281.61578">R</tspan></text>
    <path
       style="fill:none;stroke:#000000;stroke-width:1px;stroke-linecap:butt;stroke-linejoin:miter;stroke-opacity:1"
       d="m 87.637182,70.493909 604.071228,0"
       id="path2985"
       inkscape:connector-curvature="0" />
    <text
       xml:space="preserve"
       style="font-size:40px;font-style:normal;font-weight:normal;line-height:125%;letter-spacing:0px;word-spacing:0px;fill:#000000;fill-opacity:1;stroke:none;font-family:Sans"
       x="51.94466"
       y="82.615738"
       id="text3019"
       sodipodi:linespacing="125%"><tspan
         sodipodi:role="line"
         id="tspan3021"
         x="51.94466"
         y="82.615738">A</tspan></text>
    <g
       id="g4735"
       transform="translate(1.1873841,-0.59369202)">
      <path
         transform="matrix(0.24931968,0,0,0.501983,50.404679,16.601302)"
         d="m 466.69047,107.36447 c 0,20.36305 -34.14569,36.87057 -76.26652,36.87057 -42.12083,0 -76.26652,-16.50752 -76.26652,-36.87057 0,-20.363051 34.14569,-36.870566 76.26652,-36.870566 42.12083,0 76.26652,16.507515 76.26652,36.870566 z"
         sodipodi:ry="36.870567"
         sodipodi:rx="76.266518"
         sodipodi:cy="107.36447"
         sodipodi:cx="390.42395"
         id="path3776"
         style="fill:#ffffff;stroke:#000000;stroke-width:11.30673504;stroke-miterlimit:4;stroke-opacity:1;stroke-dasharray:none"
         sodipodi:type="arc" />
      <text
         sodipodi:linespacing="125%"
         id="text5413"
         y="77.362183"
         x="141.42857"
         style="font-size:20px;font-style:normal;font-weight:normal;line-height:125%;letter-spacing:0px;word-spacing:0px;fill:#000000;fill-opacity:1;stroke:none;font-family:Sans"
         xml:space="preserve"><tspan
           y="77.362183"
           x="141.42857"
           id="tspan5415"
           sodipodi:role="line">1</tspan></text>
    </g>
    <g
       id="g4740"
       transform="translate(17.176207,-0.59369202)">
      <path
         transform="matrix(0.24931968,0,0,0.501983,92.028419,16.358862)"
         d="m 466.69047,107.36447 c 0,20.36305 -34.14569,36.87057 -76.26652,36.87057 -42.12083,0 -76.26652,-16.50752 -76.26652,-36.87057 0,-20.363051 34.14569,-36.870566 76.26652,-36.870566 42.12083,0 76.26652,16.507515 76.26652,36.870566 z"
         sodipodi:ry="36.870567"
         sodipodi:rx="76.266518"
         sodipodi:cy="107.36447"
         sodipodi:cx="390.42395"
         id="path3776-5"
         style="fill:#ffffff;stroke:#000000;stroke-width:11.30673504;stroke-miterlimit:4;stroke-opacity:1;stroke-dasharray:none"
         sodipodi:type="arc" />
      <text
         sodipodi:linespacing="125%"
         id="text5413-0"
         y="77.221291"
         x="183.05196"
         style="font-size:20px;font-style:normal;font-weight:normal;line-height:125%;letter-spacing:0px;word-spacing:0px;fill:#000000;fill-opacity:1;stroke:none;font-family:Sans"
         xml:space="preserve"><tspan
           y="77.221291"
           x="183.05196"
           id="tspan5415-3"
           sodipodi:role="line">2</tspan></text>
    </g>
    <path
       style="fill:none;stroke:#000000;stroke-width:1.02041078;stroke-linecap:butt;stroke-linejoin:miter;stroke-miterlimit:4;stroke-opacity:1;stroke-dasharray:8.16328616, 4.08164308;stroke-dashoffset:0"
       d="m 635.67085,47.325464 0,254.537886"
       id="path5257-2-2"
       inkscape:connector-curvature="0" />
    <path
       style="fill:none;stroke:#000000;stroke-width:1.02041078;stroke-linecap:butt;stroke-linejoin:miter;stroke-miterlimit:4;stroke-opacity:1;stroke-dasharray:8.16328616, 4.08164308;stroke-dashoffset:0"
       d="m 464.09386,46.73177 0,254.53789"
       id="path5257-2-8"
       inkscape:connector-curvature="0" />
    <g
       id="g4755"
       transform="translate(18.6239,-0.59369202)">
      <path
         transform="matrix(0.24931968,0,0,0.501983,263.41843,17.22123)"
         d="m 466.69047,107.36447 c 0,20.36305 -34.14569,36.87057 -76.26652,36.87057 -42.12083,0 -76.26652,-16.50752 -76.26652,-36.87057 0,-20.363051 34.14569,-36.870566 76.26652,-36.870566 42.12083,0 76.26652,16.507515 76.26652,36.870566 z"
         sodipodi:ry="36.870567"
         sodipodi:rx="76.266518"
         sodipodi:cy="107.36447"
         sodipodi:cx="390.42395"
         id="path3776-1"
         style="fill:#ffffff;stroke:#000000;stroke-width:11.30673504;stroke-miterlimit:4;stroke-opacity:1;stroke-dasharray:none"
         sodipodi:type="arc" />
      <text
         sodipodi:linespacing="125%"
         id="text5413-7"
         y="77.982117"
         x="354.44229"
         style="font-size:20px;font-style:normal;font-weight:normal;line-height:125%;letter-spacing:0px;word-spacing:0px;fill:#000000;fill-opacity:1;stroke:none;font-family:Sans"
         xml:space="preserve"><tspan
           y="77.982117"
           x="354.44229"
           id="tspan5415-1"
           sodipodi:role="line">5</tspan></text>
    </g>
    <path
       style="fill:#ff0000;stroke:#000000;stroke-width:4;stroke-linecap:butt;stroke-linejoin:miter;stroke-miterlimit:4;stroke-opacity:1;stroke-dasharray:none"
       d="m 630.32762,48.563566 0,45.456861"
       id="path5361-7-8"
       inkscape:connector-curvature="0" />
    <g
       id="g4750"
       transform="translate(1.918822,-0.59369202)">
      <path
         transform="matrix(0.24931968,0,0,0.501983,222.51094,16.978789)"
         d="m 466.69047,107.36447 c 0,20.36305 -34.14569,36.87057 -76.26652,36.87057 -42.12083,0 -76.26652,-16.50752 -76.26652,-36.87057 0,-20.363051 34.14569,-36.870566 76.26652,-36.870566 42.12083,0 76.26652,16.507515 76.26652,36.870566 z"
         sodipodi:ry="36.870567"
         sodipodi:rx="76.266518"
         sodipodi:cy="107.36447"
         sodipodi:cx="390.42395"
         id="path3776-5-5-9"
         style="fill:#ffffff;stroke:#000000;stroke-width:11.30673504;stroke-miterlimit:4;stroke-opacity:1;stroke-dasharray:none"
         sodipodi:type="arc" />
      <text
         sodipodi:linespacing="125%"
         id="text5413-0-1-2"
         y="77.841217"
         x="313.53442"
         style="font-size:20px;font-style:normal;font-weight:normal;line-height:125%;letter-spacing:0px;word-spacing:0px;fill:#000000;fill-opacity:1;stroke:none;font-family:Sans"
         xml:space="preserve"><tspan
           y="77.841217"
           x="313.53442"
           id="tspan5415-3-52-7"
           sodipodi:role="line">4</tspan></text>
    </g>
    <g
       id="g4745"
       transform="translate(33.978362,-0.59369202)">
      <path
         transform="matrix(0.24931968,0,0,0.501983,132.83883,16.209472)"
         d="m 466.69047,107.36447 c 0,20.36305 -34.14569,36.87057 -76.26652,36.87057 -42.12083,0 -76.26652,-16.50752 -76.26652,-36.87057 0,-20.363051 34.14569,-36.870566 76.26652,-36.870566 42.12083,0 76.26652,16.507515 76.26652,36.870566 z"
         sodipodi:ry="36.870567"
         sodipodi:rx="76.266518"
         sodipodi:cy="107.36447"
         sodipodi:cx="390.42395"
         id="path3776-1-5"
         style="fill:#ffffff;stroke:#000000;stroke-width:11.30673504;stroke-miterlimit:4;stroke-opacity:1;stroke-dasharray:none"
         sodipodi:type="arc" />
      <text
         sodipodi:linespacing="125%"
         id="text5413-7-4"
         y="76.970352"
         x="223.86272"
         style="font-size:20px;font-style:normal;font-weight:normal;line-height:125%;letter-spacing:0px;word-spacing:0px;fill:#000000;fill-opacity:1;stroke:none;font-family:Sans"
         xml:space="preserve"><tspan
           y="76.970352"
           x="223.86272"
           id="tspan5415-1-3"
           sodipodi:role="line">3</tspan></text>
    </g>
    <g
       id="g4760"
       transform="translate(34.645353,-0.59369202)">
      <path
         transform="matrix(0.24931968,0,0,0.501983,305.00952,16.803164)"
         d="m 466.69047,107.36447 c 0,20.36305 -34.14569,36.87057 -76.26652,36.87057 -42.12083,0 -76.26652,-16.50752 -76.26652,-36.87057 0,-20.363051 34.14569,-36.870566 76.26652,-36.870566 42.12083,0 76.26652,16.507515 76.26652,36.870566 z"
         sodipodi:ry="36.870567"
         sodipodi:rx="76.266518"
         sodipodi:cy="107.36447"
         sodipodi:cx="390.42395"
         id="path3776-1-8"
         style="fill:#ffffff;stroke:#000000;stroke-width:11.30673504;stroke-miterlimit:4;stroke-opacity:1;stroke-dasharray:none"
         sodipodi:type="arc" />
      <text
         sodipodi:linespacing="125%"
         id="text5413-7-5"
         y="77.564049"
         x="396.03339"
         style="font-size:20px;font-style:normal;font-weight:normal;line-height:125%;letter-spacing:0px;word-spacing:0px;fill:#000000;fill-opacity:1;stroke:none;font-family:Sans"
         xml:space="preserve"><tspan
           y="77.564049"
           x="396.03339"
           id="tspan5415-1-7"
           sodipodi:role="line">6</tspan></text>
    </g>
    <g
       id="g4770"
       transform="translate(14.850523,-0.59369202)">
      <path
         transform="matrix(0.24931968,0,0,0.501983,440.0295,17.012197)"
         d="m 466.69047,107.36447 c 0,20.36305 -34.14569,36.87057 -76.26652,36.87057 -42.12083,0 -76.26652,-16.50752 -76.26652,-36.87057 0,-20.363051 34.14569,-36.870566 76.26652,-36.870566 42.12083,0 76.26652,16.507515 76.26652,36.870566 z"
         sodipodi:ry="36.870567"
         sodipodi:rx="76.266518"
         sodipodi:cy="107.36447"
         sodipodi:cx="390.42395"
         id="path3776-1-6"
         style="fill:#ffffff;stroke:#000000;stroke-width:11.30673504;stroke-miterlimit:4;stroke-opacity:1;stroke-dasharray:none"
         sodipodi:type="arc" />
      <text
         sodipodi:linespacing="125%"
         id="text5413-7-1"
         y="77.773087"
         x="531.05334"
         style="font-size:20px;font-style:normal;font-weight:normal;line-height:125%;letter-spacing:0px;word-spacing:0px;fill:#000000;fill-opacity:1;stroke:none;font-family:Sans"
         xml:space="preserve"><tspan
           y="77.773087"
           x="531.05334"
           id="tspan5415-1-8"
           sodipodi:role="line">8</tspan></text>
    </g>
    <g
       id="g4765"
       transform="translate(-1.854555,-0.59369202)">
      <path
         transform="matrix(0.24931968,0,0,0.501983,399.12201,16.769756)"
         d="m 466.69047,107.36447 c 0,20.36305 -34.14569,36.87057 -76.26652,36.87057 -42.12083,0 -76.26652,-16.50752 -76.26652,-36.87057 0,-20.363051 34.14569,-36.870566 76.26652,-36.870566 42.12083,0 76.26652,16.507515 76.26652,36.870566 z"
         sodipodi:ry="36.870567"
         sodipodi:rx="76.266518"
         sodipodi:cy="107.36447"
         sodipodi:cx="390.42395"
         id="path3776-5-5-9-9"
         style="fill:#ffffff;stroke:#000000;stroke-width:11.30673504;stroke-miterlimit:4;stroke-opacity:1;stroke-dasharray:none"
         sodipodi:type="arc" />
      <text
         sodipodi:linespacing="125%"
         id="text5413-0-1-2-2"
         y="77.632187"
         x="490.14548"
         style="font-size:20px;font-style:normal;font-weight:normal;line-height:125%;letter-spacing:0px;word-spacing:0px;fill:#000000;fill-opacity:1;stroke:none;font-family:Sans"
         xml:space="preserve"><tspan
           y="77.632187"
           x="490.14548"
           id="tspan5415-3-52-7-7"
           sodipodi:role="line">7</tspan></text>
    </g>
    <g
       id="g4775"
       transform="translate(30.871978,0.59369202)">
      <path
         transform="matrix(0.24931968,0,0,0.501983,481.62059,16.594131)"
         d="m 466.69047,107.36447 c 0,20.36305 -34.14569,36.87057 -76.26652,36.87057 -42.12083,0 -76.26652,-16.50752 -76.26652,-36.87057 0,-20.363051 34.14569,-36.870566 76.26652,-36.870566 42.12083,0 76.26652,16.507515 76.26652,36.870566 z"
         sodipodi:ry="36.870567"
         sodipodi:rx="76.266518"
         sodipodi:cy="107.36447"
         sodipodi:cx="390.42395"
         id="path3776-1-8-9"
         style="fill:#ffffff;stroke:#000000;stroke-width:11.30673504;stroke-miterlimit:4;stroke-opacity:1;stroke-dasharray:none"
         sodipodi:type="arc" />
      <text
         sodipodi:linespacing="125%"
         id="text5413-7-5-5"
         y="77.355019"
         x="572.64441"
         style="font-size:20px;font-style:normal;font-weight:normal;line-height:125%;letter-spacing:0px;word-spacing:0px;fill:#000000;fill-opacity:1;stroke:none;font-family:Sans"
         xml:space="preserve"><tspan
           y="77.355019"
           x="572.64441"
           id="tspan5415-1-7-4"
           sodipodi:role="line">9</tspan></text>
    </g>
    <path
       sodipodi:type="arc"
       style="fill:#ff0000;stroke:#000000;stroke-width:11.30673504;stroke-miterlimit:4;stroke-opacity:1;stroke-dasharray:none"
       id="path3776-5-6-3-9"
       sodipodi:cx="390.42395"
       sodipodi:cy="107.36447"
       sodipodi:rx="76.266518"
       sodipodi:ry="36.870567"
       d="m 466.69047,107.36447 c 0,20.36305 -34.14569,36.87057 -76.26652,36.87057 -42.12083,0 -76.26652,-16.50752 -76.26652,-36.87057 0,-20.363051 34.14569,-36.870566 76.26652,-36.870566 42.12083,0 76.26652,16.507515 76.26652,36.870566 z"
       transform="matrix(0.24931968,0,0,0.501983,537.62726,215.02531)" />
    <text
       xml:space="preserve"
       style="font-size:20px;font-style:normal;font-weight:normal;line-height:125%;letter-spacing:0px;word-spacing:0px;fill:#000000;fill-opacity:1;stroke:none;font-family:Sans"
       x="628.65076"
       y="275.88773"
       id="text5413-0-2-1-3"
       sodipodi:linespacing="125%"><tspan
         sodipodi:role="line"
         id="tspan5415-3-1-2-19"
         x="628.65076"
         y="275.88773">9</tspan></text>
    <path
       sodipodi:type="arc"
       style="fill:#ff0000;stroke:#000000;stroke-width:11.30673504;stroke-miterlimit:4;stroke-opacity:1;stroke-dasharray:none"
       id="path3776-5-6-8"
       sodipodi:cx="390.42395"
       sodipodi:cy="107.36447"
       sodipodi:rx="76.266518"
       sodipodi:ry="36.870567"
       d="m 466.69047,107.36447 c 0,20.36305 -34.14569,36.87057 -76.26652,36.87057 -42.12083,0 -76.26652,-16.50752 -76.26652,-36.87057 0,-20.363051 34.14569,-36.870566 76.26652,-36.870566 42.12083,0 76.26652,16.507515 76.26652,36.870566 z"
       transform="matrix(0.24931968,0,0,0.501983,537.65992,184.32894)" />
    <path
       sodipodi:type="arc"
       style="fill:#ff0000;stroke:#000000;stroke-width:11.30673504;stroke-miterlimit:4;stroke-opacity:1;stroke-dasharray:none"
       id="path3776-14-6"
       sodipodi:cx="390.42395"
       sodipodi:cy="107.36447"
       sodipodi:rx="76.266518"
       sodipodi:ry="36.870567"
       d="m 466.69047,107.36447 c 0,20.36305 -34.14569,36.87057 -76.26652,36.87057 -42.12083,0 -76.26652,-16.50752 -76.26652,-36.87057 0,-20.363051 34.14569,-36.870566 76.26652,-36.870566 42.12083,0 76.26652,16.507515 76.26652,36.870566 z"
       transform="matrix(0.24931968,0,0,0.501983,537.59462,154.2931)" />
    <text
       xml:space="preserve"
       style="font-size:20px;font-style:normal;font-weight:normal;line-height:125%;letter-spacing:0px;word-spacing:0px;fill:#000000;fill-opacity:1;stroke:none;font-family:Sans"
       x="628.61847"
       y="215.05396"
       id="text5413-2-5"
       sodipodi:linespacing="125%"><tspan
         sodipodi:role="line"
         id="tspan5415-32-0"
         x="628.61847"
         y="215.05396">7</tspan></text>
    <text
       xml:space="preserve"
       style="font-size:20px;font-style:normal;font-weight:normal;line-height:125%;letter-spacing:0px;word-spacing:0px;fill:#000000;fill-opacity:1;stroke:none;font-family:Sans"
       x="628.68341"
       y="245.19135"
       id="text5413-0-2-2"
       sodipodi:linespacing="125%"><tspan
         sodipodi:role="line"
         id="tspan5415-3-1-8"
         x="628.68341"
         y="245.19135">8</tspan></text>
    <path
       sodipodi:type="arc"
       style="fill:#ff0000;stroke:#000000;stroke-width:11.30673504;stroke-miterlimit:4;stroke-opacity:1;stroke-dasharray:none"
       id="path3776-5-6-3"
       sodipodi:cx="390.42395"
       sodipodi:cy="107.36447"
       sodipodi:rx="76.266518"
       sodipodi:ry="36.870567"
       d="m 466.69047,107.36447 c 0,20.36305 -34.14569,36.87057 -76.26652,36.87057 -42.12083,0 -76.26652,-16.50752 -76.26652,-36.87057 0,-20.363051 34.14569,-36.870566 76.26652,-36.870566 42.12083,0 76.26652,16.507515 76.26652,36.870566 z"
       transform="matrix(0.24931968,0,0,0.501983,195.77009,215.09624)" />
    <text
       xml:space="preserve"
       style="font-size:20px;font-style:normal;font-weight:normal;line-height:125%;letter-spacing:0px;word-spacing:0px;fill:#000000;fill-opacity:1;stroke:none;font-family:Sans"
       x="286.79358"
       y="275.95865"
       id="text5413-0-2-1"
       sodipodi:linespacing="125%"><tspan
         sodipodi:role="line"
         id="tspan5415-3-1-2"
         x="286.79358"
         y="275.95865">3</tspan></text>
    <path
       sodipodi:type="arc"
       style="fill:#ff0000;stroke:#000000;stroke-width:11.30673504;stroke-miterlimit:4;stroke-opacity:1;stroke-dasharray:none"
       id="path3776-5-6"
       sodipodi:cx="390.42395"
       sodipodi:cy="107.36447"
       sodipodi:rx="76.266518"
       sodipodi:ry="36.870567"
       d="m 466.69047,107.36447 c 0,20.36305 -34.14569,36.87057 -76.26652,36.87057 -42.12083,0 -76.26652,-16.50752 -76.26652,-36.87057 0,-20.363051 34.14569,-36.870566 76.26652,-36.870566 42.12083,0 76.26652,16.507515 76.26652,36.870566 z"
       transform="matrix(0.24931968,0,0,0.501983,195.80275,184.39987)" />
    <path
       sodipodi:type="arc"
       style="fill:#ff0000;stroke:#000000;stroke-width:11.30673504;stroke-miterlimit:4;stroke-opacity:1;stroke-dasharray:none"
       id="path3776-14"
       sodipodi:cx="390.42395"
       sodipodi:cy="107.36447"
       sodipodi:rx="76.266518"
       sodipodi:ry="36.870567"
       d="m 466.69047,107.36447 c 0,20.36305 -34.14569,36.87057 -76.26652,36.87057 -42.12083,0 -76.26652,-16.50752 -76.26652,-36.87057 0,-20.363051 34.14569,-36.870566 76.26652,-36.870566 42.12083,0 76.26652,16.507515 76.26652,36.870566 z"
       transform="matrix(0.24931968,0,0,0.501983,195.73745,154.36403)" />
    <text
       xml:space="preserve"
       style="font-size:20px;font-style:normal;font-weight:normal;line-height:125%;letter-spacing:0px;word-spacing:0px;fill:#000000;fill-opacity:1;stroke:none;font-family:Sans"
       x="286.76129"
       y="215.12488"
       id="text5413-2"
       sodipodi:linespacing="125%"><tspan
         sodipodi:role="line"
         id="tspan5415-32"
         x="286.76129"
         y="215.12488">1</tspan></text>
    <text
       xml:space="preserve"
       style="font-size:20px;font-style:normal;font-weight:normal;line-height:125%;letter-spacing:0px;word-spacing:0px;fill:#000000;fill-opacity:1;stroke:none;font-family:Sans"
       x="286.82623"
       y="245.26228"
       id="text5413-0-2"
       sodipodi:linespacing="125%"><tspan
         sodipodi:role="line"
         id="tspan5415-3-1"
         x="286.82623"
         y="245.26228">2</tspan></text>
    <path
       sodipodi:type="arc"
       style="fill:#ff0000;stroke:#000000;stroke-width:11.30673504;stroke-miterlimit:4;stroke-opacity:1;stroke-dasharray:none"
       id="path3776-5-6-3-3"
       sodipodi:cx="390.42395"
       sodipodi:cy="107.36447"
       sodipodi:rx="76.266518"
       sodipodi:ry="36.870567"
       d="m 466.69047,107.36447 c 0,20.36305 -34.14569,36.87057 -76.26652,36.87057 -42.12083,0 -76.26652,-16.50752 -76.26652,-36.87057 0,-20.363051 34.14569,-36.870566 76.26652,-36.870566 42.12083,0 76.26652,16.507515 76.26652,36.870566 z"
       transform="matrix(0.24931968,0,0,0.501983,366.64394,215.02531)" />
    <text
       xml:space="preserve"
       style="font-size:20px;font-style:normal;font-weight:normal;line-height:125%;letter-spacing:0px;word-spacing:0px;fill:#000000;fill-opacity:1;stroke:none;font-family:Sans"
       x="457.66745"
       y="275.88773"
       id="text5413-0-2-1-4"
       sodipodi:linespacing="125%"><tspan
         sodipodi:role="line"
         id="tspan5415-3-1-2-1"
         x="457.66745"
         y="275.88773">6</tspan></text>
    <path
       sodipodi:type="arc"
       style="fill:#ff0000;stroke:#000000;stroke-width:11.30673504;stroke-miterlimit:4;stroke-opacity:1;stroke-dasharray:none"
       id="path3776-5-6-1"
       sodipodi:cx="390.42395"
       sodipodi:cy="107.36447"
       sodipodi:rx="76.266518"
       sodipodi:ry="36.870567"
       d="m 466.69047,107.36447 c 0,20.36305 -34.14569,36.87057 -76.26652,36.87057 -42.12083,0 -76.26652,-16.50752 -76.26652,-36.87057 0,-20.363051 34.14569,-36.870566 76.26652,-36.870566 42.12083,0 76.26652,16.507515 76.26652,36.870566 z"
       transform="matrix(0.24931968,0,0,0.501983,366.6766,184.32894)" />
    <path
       sodipodi:type="arc"
       style="fill:#ff0000;stroke:#000000;stroke-width:11.30673504;stroke-miterlimit:4;stroke-opacity:1;stroke-dasharray:none"
       id="path3776-14-3"
       sodipodi:cx="390.42395"
       sodipodi:cy="107.36447"
       sodipodi:rx="76.266518"
       sodipodi:ry="36.870567"
       d="m 466.69047,107.36447 c 0,20.36305 -34.14569,36.87057 -76.26652,36.87057 -42.12083,0 -76.26652,-16.50752 -76.26652,-36.87057 0,-20.363051 34.14569,-36.870566 76.26652,-36.870566 42.12083,0 76.26652,16.507515 76.26652,36.870566 z"
       transform="matrix(0.24931968,0,0,0.501983,366.6113,154.2931)" />
    <text
       xml:space="preserve"
       style="font-size:20px;font-style:normal;font-weight:normal;line-height:125%;letter-spacing:0px;word-spacing:0px;fill:#000000;fill-opacity:1;stroke:none;font-family:Sans"
       x="457.63516"
       y="215.05394"
       id="text5413-2-8"
       sodipodi:linespacing="125%"><tspan
         sodipodi:role="line"
         id="tspan5415-32-7"
         x="457.63516"
         y="215.05394">4</tspan></text>
    <text
       xml:space="preserve"
       style="font-size:20px;font-style:normal;font-weight:normal;line-height:125%;letter-spacing:0px;word-spacing:0px;fill:#000000;fill-opacity:1;stroke:none;font-family:Sans"
       x="457.7001"
       y="245.19136"
       id="text5413-0-2-4"
       sodipodi:linespacing="125%"><tspan
         sodipodi:role="line"
         id="tspan5415-3-1-27"
         x="457.7001"
         y="245.19136">5</tspan></text>
    <path
       style="fill:#ff0000;stroke:#000000;stroke-width:4;stroke-linecap:butt;stroke-linejoin:miter;stroke-miterlimit:4;stroke-opacity:1;stroke-dasharray:none"
       d="m 656.45008,216.57841 0,45.45686"
       id="path5361-7-8-2"
       inkscape:connector-curvature="0" />
  </g>
</svg>
